<svg xmlns="http://www.w3.org/2000/svg" viewBox="0 0 120 120">
  <defs>
    <radialGradient id="bodyHappy" cx="40%" cy="35%" r="70%">
      <stop offset="0%" stop-color="#ffffff"/>
      <stop offset="100%" stop-color="#e8f8f0"/>
    </radialGradient>
  </defs>
  <ellipse cx="32" cy="38" rx="10" ry="13" fill="url(#bodyHappy)" transform="rotate(-25 32 38)"/>
  <ellipse cx="88" cy="38" rx="10" ry="13" fill="url(#bodyHappy)" transform="rotate(25 88 38)"/>
  <ellipse cx="32" cy="38" rx="5" ry="7" fill="#55efc4" opacity="0.6" transform="rotate(-25 32 38)"/>
  <ellipse cx="88" cy="38" rx="5" ry="7" fill="#55efc4" opacity="0.6" transform="rotate(25 88 38)"/>

  <path d="M60 22 C 90 22, 102 50, 102 72 C 102 96, 82 108, 60 108 C 38 108, 18 96, 18 72 C 18 50, 30 22, 60 22 Z" fill="url(#bodyHappy)"/>

  <!-- Closed happy eyes (^ ^) -->
  <path d="M37 64 Q 44 56 51 64" stroke="#2d3436" stroke-width="3" stroke-linecap="round" fill="none"/>
  <path d="M69 64 Q 76 56 83 64" stroke="#2d3436" stroke-width="3" stroke-linecap="round" fill="none"/>

  <ellipse cx="30" cy="80" rx="7" ry="4" fill="#ff7675" opacity="0.4"/>
  <ellipse cx="90" cy="80" rx="7" ry="4" fill="#ff7675" opacity="0.4"/>

  <ellipse cx="60" cy="76" rx="2.5" ry="1.8" fill="#ff7675"/>

  <!-- Big smile -->
  <path d="M46 84 Q 60 96 74 84" stroke="#2d3436" stroke-width="2.5" stroke-linecap="round" fill="none"/>
  <path d="M52 88 Q 60 92 68 88 L 68 86 Q 60 90 52 86 Z" fill="#ff7675" opacity="0.6"/>
</svg>
